<svg xmlns="http://www.w3.org/2000/svg" viewBox="0 0 200 200" role="img">
<defs>
  <linearGradient id="hexg" x1="0" y1="0" x2="1" y2="1">
    <stop offset="0" stop-color="#7C83FF"/>
    <stop offset="1" stop-color="#45E3C6"/>
  </linearGradient>
  <radialGradient id="halo" cx="0.5" cy="0.5" r="0.5">
    <stop offset="0" stop-color="#7C83FF" stop-opacity="0.20"/>
    <stop offset="1" stop-color="#7C83FF" stop-opacity="0"/>
  </radialGradient>
  <filter id="glow" x="-40%" y="-40%" width="180%" height="180%">
    <feGaussianBlur stdDeviation="2.6" result="b"/>
    <feMerge><feMergeNode in="b"/><feMergeNode in="SourceGraphic"/></feMerge>
  </filter>
</defs>
<rect width="200" height="200" fill="#14122E"/>
<circle cx="100" cy="100" r="86" fill="url(#halo)"/>
<polygon points="100.0,34.0 42.8,67.0 42.8,133.0 100.0,166.0 157.2,133.0 157.2,67.0" fill="none" stroke="url(#hexg)" stroke-width="3" stroke-linejoin="round" filter="url(#glow)" opacity="0.95"/>
<g filter="url(#glow)" fill="none" stroke-linecap="round" stroke-linejoin="round">
<line x1="64" y1="128" x2="136" y2="128" stroke="#B49CFF" stroke-width="3.5"/>
<line x1="64" y1="137" x2="136" y2="137" stroke="#B49CFF" stroke-width="3.5" opacity="0.55"/>
<line x1="100" y1="128" x2="100" y2="102" stroke="#45E3C6" stroke-width="4"/>
<path d="M 100 102 L 87 88 M 100 102 L 113 88" stroke="#45E3C6" stroke-width="4"/>
<path d="M 82 84 A 7 7 0 0 0 92 84" stroke="#45E3C6" stroke-width="3.5"/>
<path d="M 108 84 A 7 7 0 0 0 118 84" stroke="#45E3C6" stroke-width="3.5"/>
<circle cx="100" cy="70" r="7" fill="#FB7185" stroke="none"/>
<circle cx="100" cy="70" r="12" stroke="#FB7185" stroke-width="1.6" opacity="0.5"/>
</g>
</svg>
